<svg id="Ebene_1" data-name="Ebene 1" xmlns="http://www.w3.org/2000/svg" width="73.38mm" height="40mm" viewBox="0 0 50 45.83"><defs><style>.cls-1{fill:#003c68;}.cls-2{fill:#e30613;}.cls-3{fill:#df242c;}</style></defs><title>logo</title>
<path class="cls-2" d="M26.24,19.47l3-5.13-3-5.13-3,5.13H17.36l-3-5.12-3,5.12,3,5.13-3,5.12h5.92l3,5.13,3-5.13H29.2Zm-10.74,0,1.76-1.52L19,19.45Zm6.13,0,1.76-1.52,1.75,1.52Z" transform="translate(-1.42 -1.42)"/>
<path class="cls-1" d="M43.61,34.65a27.41,27.41,0,0,1-4,3,8.11,8.11,0,0,1-4.42,1.2A13.36,13.36,0,0,1,31,38.13q-2.2-.74-4.71-1.77l-5.32-2.15a48.14,48.14,0,0,0-6.11-2,6.86,6.86,0,0,1,3.58-1.15,18,18,0,0,1,4.83.61c1.59.4,3.19.82,4.79,1.28s3.22.88,4.86,1.28a21.43,21.43,0,0,0,5,.58,19.27,19.27,0,0,0,2.7-.19,14.85,14.85,0,0,0,2.8-.69Z" transform="translate(-1.42 -1.42)"/>
<path class="cls-1" d="M25.87,37.26,23.29,36.2a16.18,16.18,0,1,1,7.39-3.49l2.41.61.77.16a18.83,18.83,0,1,0-6.5,4.37Z" transform="translate(-1.42 -1.42)"/>

</svg>